<svg width="256" height="259" xmlns="http://www.w3.org/2000/svg" preserveAspectRatio="xMidYMid">

 <g>
  <title>background</title>
  <rect fill="none" id="canvas_background" height="402" width="582" y="-1" x="-1"/>
 </g>
 <g>
  <title>Layer 1</title>
  <path id="svg_2" fill="#f2f2f2" d="m127.778579,0c-67.358224,0 -122.538273,52.412282 -127.778579,119.013983l68.723656,28.674067c5.821536,-4.022489 12.860891,-6.365865 20.426121,-6.365865c0.682715,0 1.356205,0.018452 2.02047,0.055356l30.565374,-44.708664l0,-0.62736c0,-26.902696 21.690067,-48.795733 48.35289,-48.795733c26.662822,0 48.35289,21.893037 48.35289,48.795733c0,26.902695 -21.690068,48.804958 -48.35289,48.804958c-0.369036,0 -0.728845,-0.009225 -1.097881,-0.018451l-43.592331,31.377252c0.027678,0.581231 0.046129,1.162462 0.046129,1.734467c0,20.2047 -16.283696,36.63601 -36.294651,36.63601c-17.566095,0 -32.262938,-12.657921 -35.584259,-29.412138l-49.155543,-20.509153c15.222719,54.312815 64.67349,94.131757 123.368604,94.131757c70.817932,0 128.221421,-57.93859 128.221421,-129.39311c0,-71.463745 -57.403489,-129.393109 -128.221421,-129.393109zm-47.426611,196.332478l-15.748595,-6.568834c2.786219,5.867666 7.620585,10.77584 14.032579,13.4698c13.857287,5.830762 29.836529,-0.802653 35.611936,-14.798328c2.795445,-6.771803 2.813897,-14.244774 0.04613,-21.03503c-2.767767,-6.790255 -7.998847,-12.085916 -14.706069,-14.909038c-6.670319,-2.795445 -13.811158,-2.69396 -20.084763,-0.304454l16.27447,6.790255c10.222286,4.299265 15.056653,16.145308 10.794292,26.459853c-4.253136,10.314545 -15.997694,15.195041 -26.21998,10.895776zm121.957042,-100.290039c0,-17.925904 -14.45697,-32.521263 -32.216809,-32.521263c-17.769064,0 -32.226034,14.595359 -32.226034,32.521263c0,17.925905 14.45697,32.512037 32.226034,32.512037c17.759839,0 32.216809,-14.586132 32.216809,-32.512037zm-56.370189,-0.055355c0,-13.488252 10.840421,-24.420931 24.19951,-24.420931c13.368315,0 24.208735,10.932679 24.208735,24.420931c0,13.488251 -10.84042,24.420931 -24.208735,24.420931c-13.359089,0 -24.19951,-10.93268 -24.19951,-24.420931z"/>
 </g>
</svg>